<?xml version="1.0"?>
<svg xmlns="http://www.w3.org/2000/svg" id="Layer_1" data-name="Layer 1" viewBox="0 0 64 64"><path d="M27.13,33.22c.02,1.65.21,5.34,1.52,7.6.05-2.15.19-5.62,2.83-7.19a1.02,1.02,0,0,1,1.04,0c2.64,1.57,2.78,5.03,2.83,7.18,1.3-2.25,1.5-5.94,1.52-7.59a4.83,4.83,0,0,1,.86-2.7c2.17-3.19,1.12-6.56-.27-7.84a1.329,1.329,0,0,0-1.83-.28c-.28.23-.55.44-.8.64a4.637,4.637,0,0,1-5.66,0c-.25-.2-.52-.41-.81-.64a1.063,1.063,0,0,0-.69-.27,1.764,1.764,0,0,0-1.13.55c-1.39,1.28-2.44,4.65-.27,7.84A4.806,4.806,0,0,1,27.13,33.22Z"/><path d="M39.11,5.4H35.652a3.661,3.661,0,0,0-7.3,0H24.89a1,1,0,0,0-1,1v.789H10.359a1,1,0,0,0-1,1V61a1,1,0,0,0,1,1H53.641a1,1,0,0,0,1-1V8.189a1,1,0,0,0-1-1H40.11V6.4A.99.99,0,0,0,39.11,5.4Zm9.364,32.337a18.359,18.359,0,0,0-.279,3.068,16.655,16.655,0,0,1-1.519-7.593,4.827,4.827,0,0,0-.862-2.692c-2.17-3.186-1.126-6.561.264-7.838a1.341,1.341,0,0,1,1.834-.285l.175.142c.137.111.265.214.387.31Zm0-17.319a3.332,3.332,0,0,0-3.751.792c-2.318,2.133-3.162,6.619-.557,10.444a2.835,2.835,0,0,1,.51,1.581c.026,2.669.423,7.509,2.789,9.924a2.34,2.34,0,0,0,1.009.651V55.661H15.526V43.81a2.3,2.3,0,0,0,1-.646c2.372-2.421,2.768-7.253,2.794-9.913a2.934,2.934,0,0,1,.516-1.6c2.6-3.817,1.755-8.3-.563-10.437a3.331,3.331,0,0,0-3.745-.791v-6.89H23.89v.422a1,1,0,0,0,1,1H39.11a.99.99,0,0,0,1-1v-.422h8.364ZM15.526,22.846c.185-.147.37-.292.558-.45a1.34,1.34,0,0,1,1.833.286c1.389,1.277,2.434,4.652.263,7.84a4.937,4.937,0,0,0-.862,2.7,16.629,16.629,0,0,1-1.509,7.557,18.051,18.051,0,0,0-.283-3.078ZM32,4a1.679,1.679,0,0,1,1.652,1.4h-3.3A1.679,1.679,0,0,1,32,4ZM25.89,7.4H38.11v5.55H25.89ZM52.641,9.189V60H11.359V9.189H23.89v2.339H14.526a1,1,0,0,0-1,1V56.661a1,1,0,0,0,1,1H49.474a1,1,0,0,0,1-1V12.528a1,1,0,0,0-1-1H40.11V9.189Z"/><path d="M17.851,48.283a1,1,0,0,0,1,1h26.3a1,1,0,0,0,0-2h-26.3A1,1,0,0,0,17.851,48.283Z"/><path d="M45.149,51.315h-26.3a1,1,0,0,0,0,2h26.3a1,1,0,0,0,0-2Z"/></svg>
