<?xml version="1.0" encoding="UTF-8"?>
<svg xmlns="http://www.w3.org/2000/svg" viewBox="0 0 64 64" width="512" height="512"><g id="Outline"><g id="Outline-2" data-name="Outline"><path d="M19.5,9.5A7.5,7.5,0,1,0,11,16.925V22H10a2,2,0,0,0-2,2V58a4,4,0,0,0,8,0V24a2,2,0,0,0-2-2H13V16.925A7.5,7.5,0,0,0,19.5,9.5ZM14,58a2,2,0,0,1-4,0V51h4Zm0-9H10V35h4Zm0-25v9H10V24Zm-2-9a5.5,5.5,0,1,1,5.5-5.5A5.506,5.506,0,0,1,12,15Z"/><path d="M12,6a1,1,0,0,0,0,2,1.5,1.5,0,0,1,1.5,1.5,1,1,0,0,0,2,0A3.5,3.5,0,0,0,12,6Z"/><path d="M34.041,50A1.961,1.961,0,0,0,36,48.042V15.958A1.961,1.961,0,0,0,34.041,14H33.07L33,8.986a1.009,1.009,0,0,0-.168-.541L31.414,6.318l4.1-2.461a1,1,0,0,0-1.03-1.714l-5,3a1.006,1.006,0,0,0-.317,1.412L31,9.309,31.07,14H29.959A1.961,1.961,0,0,0,28,15.958V48.042A1.961,1.961,0,0,0,29.959,50H31v4.13a2.02,2.02,0,0,0,1.532,1.941A2,2,0,0,1,32,60H29a1,1,0,0,0,0,2h3a4,4,0,0,0,1-7.87V50ZM29.959,16,34,15.958V21H29.965Zm.009,7H34V41H29.991ZM30,48.042,29.994,43H34v5Z"/><path d="M59.924,2.617A1,1,0,0,0,59,2H55a1,1,0,0,0-.641.232l-6,5A1,1,0,0,0,48,8V58a4,4,0,0,0,8,0V25a1.019,1.019,0,0,0-.008-.124L54.053,9.361l5.654-5.654A1,1,0,0,0,59.924,2.617ZM54,58a2,2,0,0,1-4,0V46h4Zm0-14H50V42h4Zm0-4H50V38h4Zm0-4H50V34h4Zm0-4H50V30h4Zm0-4H50V26h4ZM52.293,8.293a1,1,0,0,0-.285.831L53.867,24H50V8.468L55.362,4h1.224Z"/></g></g></svg>
