<svg id="Capa_1" enable-background="new 0 0 511.999 511.999" viewBox="0 0 511.999 511.999" xmlns="http://www.w3.org/2000/svg"><g><path d="m380.739 349.084h20.805c11.629 0 21.09-9.46 21.09-21.089v-7.897h7.896c11.629 0 21.09-9.46 21.09-21.089v-20.805c0-11.629-9.461-21.089-21.09-21.089h-7.896v-7.897c0-11.629-9.461-21.089-21.09-21.089h-20.805c-11.629 0-21.09 9.46-21.09 21.089v7.897h-7.897c-11.629 0-21.089 9.46-21.089 21.089v20.805c0 11.629 9.46 21.089 21.089 21.089h7.897v7.897c0 11.628 9.461 21.089 21.09 21.089zm-28.987-43.987c-3.357 0-6.089-2.731-6.089-6.089v-20.805c0-3.358 2.731-6.089 6.089-6.089h15.397c4.143 0 7.5-3.358 7.5-7.5v-15.397c0-3.358 2.731-6.089 6.09-6.089h20.805c3.358 0 6.09 2.731 6.09 6.089v15.397c0 4.142 3.357 7.5 7.5 7.5h15.396c3.358 0 6.09 2.731 6.09 6.089v20.805c0 3.358-2.731 6.089-6.09 6.089h-15.396c-4.143 0-7.5 3.358-7.5 7.5v15.397c0 3.358-2.731 6.089-6.09 6.089h-20.805c-3.358 0-6.09-2.731-6.09-6.089v-15.397c0-4.142-3.357-7.5-7.5-7.5z"/><path d="m124.01 117.589c0-3.455 2.811-6.265 6.265-6.265s6.265 2.811 6.265 6.265c0 4.142 3.357 7.5 7.5 7.5s7.5-3.358 7.5-7.5c0-11.726-9.539-21.265-21.265-21.265s-21.265 9.54-21.265 21.265c0 4.142 3.357 7.5 7.5 7.5s7.5-3.358 7.5-7.5z"/><path d="m247.055 117.589c0-3.455 2.811-6.265 6.265-6.265s6.265 2.811 6.265 6.265c0 4.142 3.357 7.5 7.5 7.5s7.5-3.358 7.5-7.5c0-11.726-9.539-21.265-21.265-21.265s-21.265 9.54-21.265 21.265c0 4.142 3.357 7.5 7.5 7.5s7.5-3.358 7.5-7.5z"/><path d="m191.797 147.83c7.763 0 15.146-3.362 20.255-9.225 2.722-3.122 2.397-7.86-.726-10.582s-7.86-2.397-10.581.726c-2.261 2.593-5.522 4.081-8.948 4.081s-6.688-1.487-8.948-4.081c-2.721-3.123-7.459-3.446-10.581-.726-3.123 2.722-3.447 7.459-.726 10.582 5.109 5.863 12.492 9.225 20.255 9.225z"/><path d="m391.141 167.748c-5.854 0-11.609.427-17.242 1.235 5.683-17.524 8.907-34.533 9.596-50.714 1.253-29.449-9.646-58.537-29.904-79.804-19.899-20.89-46.574-32.49-75.112-32.664-20.385-.126-40.249 5.575-57.377 16.48-17.801 11.33-40.807 11.332-58.609 0-17.129-10.905-36.991-16.606-57.377-16.48-19.18.117-37.919 5.522-54.191 15.632-3.519 2.186-4.599 6.81-2.412 10.329 2.186 3.52 6.812 4.597 10.328 2.413 13.921-8.649 29.954-13.273 46.367-13.373 17.514-.107 34.537 4.781 49.23 14.134 22.695 14.445 52.023 14.445 74.719 0 14.694-9.353 31.758-14.27 49.23-14.134 24.429.148 47.279 10.095 64.343 28.009 17.464 18.334 26.86 43.418 25.779 68.82-.74 17.367-4.704 35.893-11.784 55.117-49.926 14.858-86.44 61.17-86.44 115.857 0 45.117 24.854 84.533 61.586 105.292.794 28.598-3.803 58.732-13.389 87.438-2.656 7.955-9.487 10.275-14.988 9.79-5.544-.486-11.91-3.983-13.149-12.34-12.073-81.387-37.063-139.491-76.398-177.633-5.995-5.813-13.86-9.015-22.148-9.015s-16.153 3.202-22.147 9.015c-39.336 38.143-64.326 96.247-76.399 177.634-1.239 8.356-7.604 11.853-13.148 12.34-5.512.48-12.334-1.835-14.989-9.79-18.148-54.348-18.124-110.523.066-154.124 13.165-31.556 9.995-67.438-8.479-95.985-17.96-27.751-39.758-69.987-41.614-113.595-.948-22.285 6.056-44.225 19.721-61.777 2.545-3.269 1.958-7.981-1.311-10.525-3.268-2.543-7.98-1.958-10.525 1.311-15.852 20.355-23.974 45.793-22.876 71.628 2 46.982 25.035 91.79 44.007 121.106 15.787 24.394 18.489 55.071 7.229 82.061-19.566 46.899-19.73 106.912-.451 164.65 4.339 13.211 16.94 21.251 30.528 19.981 13.912-1.221 24.632-11.3 26.676-25.082 11.571-78.003 35.124-133.305 72.004-169.067 3.18-3.084 7.337-4.783 11.705-4.783s8.525 1.699 11.706 4.783c36.879 35.761 60.432 91.063 72.003 169.066 2.045 13.782 12.765 23.861 26.677 25.082 13.84 1.216 26.13-6.813 30.527-19.981 9.289-27.82 14.157-56.955 14.259-84.983 13.689 5.394 28.591 8.359 44.173 8.359 19.88 0 39.599-4.938 57.025-14.281 3.65-1.957 5.023-6.503 3.066-10.153s-6.502-5.024-10.154-3.066c-15.254 8.178-32.522 12.5-49.938 12.5-58.37 0-105.857-47.487-105.857-105.857s47.487-105.858 105.857-105.858 105.857 47.488 105.857 105.858c0 27.635-10.591 53.788-29.821 73.64-2.882 2.975-2.807 7.723.169 10.605 2.975 2.883 7.724 2.807 10.604-.169 21.956-22.666 34.048-52.525 34.048-84.077.002-66.638-54.215-120.855-120.856-120.855z"/></g><g/><g/><g/><g/><g/><g/><g/><g/><g/><g/><g/><g/><g/><g/><g/></svg>