<svg height="512pt" viewBox="-75 0 512 512.002" width="512pt" xmlns="http://www.w3.org/2000/svg"><path d="m351.238281 52.453125c-1.910156-3.675781-6.441406-5.109375-10.113281-3.199219-3.675781 1.910156-5.109375 6.4375-3.199219 10.113282 9.785157 18.835937 11.839844 40.484374 5.785157 60.953124-2.414063 8.179688-23.621094 80.007813-24.546876 83.574219-.183593.710938-.820312 1.210938-1.542968 1.210938h-176.992188c-4.144531 0-7.5 3.355469-7.5 7.5 0 4.140625 3.355469 7.5 7.5 7.5h154.234375l-4.167969 22.917969c-.140624.757812-.796874 1.304687-1.566406 1.304687h-216.101562c-.769532 0-1.425782-.546875-1.5625-1.304687l-4.171875-22.917969h40.675781c4.140625 0 7.5-3.359375 7.5-7.5 0-4.144531-3.359375-7.5-7.5-7.5h-63.433594c-.722656 0-1.359375-.496094-1.542968-1.207031-.019532-.078126-.042969-.15625-.0625-.234376l-24.484376-83.34375c-7.410156-25.0625-2.691406-51.441406 12.949219-72.378906 15.640625-20.933594 39.597657-32.941406 65.730469-32.941406 7.777344 0 15.46875 1.085938 22.863281 3.226562 39.964844 11.574219 82.21875 11.574219 122.179688 0 7.394531-2.140624 15.085937-3.226562 22.863281-3.226562 20.105469 0 39.398438 7.296875 54.332031 20.546875 3.097657 2.75 7.839844 2.46875 10.589844-.628906 2.75-3.101563 2.464844-7.839844-.632813-10.589844-17.679687-15.6875-40.511718-24.328125-64.289062-24.328125-9.1875 0-18.285156 1.285156-27.035156 3.816406-37.234375 10.785156-76.601563 10.785156-113.835938 0-8.75-2.53125-17.847656-3.816406-27.035156-3.816406-30.910156 0-59.25 14.203125-77.75 38.964844-18.5 24.761718-24.082031 55.964844-15.316406 85.59375l24.449218 83.234375c1.941407 7.257812 8.515626 12.3125 16.027344 12.3125h7.511719l4.660156 25.601562c1.433594 7.894531 8.300781 13.621094 16.320313 13.621094h32.683594l5.296874 45.625-5.285156 1.414063c-5.46875 1.464843-10.039062 4.972656-12.867187 9.875-2.832031 4.902343-3.582031 10.613281-2.117188 16.078124 2.535157 9.457032 11.117188 15.707032 20.472657 15.707032 1.566406 0 3.15625-.1875 4.742187-.550782l2.695313 23.207032-7.148438 1.917968c-11.285156 3.023438-18.007812 14.664063-14.984375 25.953126 2.535156 9.453124 11.117187 15.707031 20.472656 15.707031 1.8125 0 3.648438-.234375 5.480469-.726563l1.121094-.300781 2.695312 23.183594-6.121094 1.640625c-5.46875 1.464844-10.035156 4.972656-12.867187 9.875-2.828125 4.902344-3.578125 10.609375-2.113281 16.078125 1.460937 5.464843 4.96875 10.035156 9.871094 12.867187 3.265624 1.882813 6.886718 2.847656 10.558593 2.847656 1.839844 0 3.695313-.242187 5.519531-.730468l.097657-.027344 2.042969 17.582031c1.019531 8.808594 8.480468 15.453125 17.351562 15.453125h60.910156c8.867188 0 16.328125-6.644531 17.351563-15.453125l5.246093-45.152343 7.863282-2.109376c11.28125-3.023437 18.003906-14.664062 14.980468-25.949218-2.289062-8.539063-9.511718-14.457032-17.78125-15.527344l3.066407-26.375 8.398437-2.25c11.28125-3.019531 18.003906-14.664062 14.980469-25.949219-2.335937-8.71875-9.808594-14.707031-18.292969-15.589843l3.042969-26.167969 6.042969-1.617188c11.289062-3.027343 18.007812-14.667969 14.984375-25.953125-2.128907-7.941406-8.523438-13.613281-16.058594-15.230468l1.089844-9.347657h32.679687c8.023438 0 14.886719-5.730469 16.324219-13.621093l4.660156-25.605469h7.507813c7.558594 0 14.164062-5.117188 16.0625-12.441407.660156-2.546874 14.960937-51.085937 24.414062-83.089843 7.15625-24.207031 4.722656-49.820313-6.859375-72.121094zm-137.253906 442.363281c-.144531 1.246094-1.199219 2.183594-2.449219 2.183594h-60.914062c-1.25 0-2.304688-.9375-2.449219-2.183594l-2.296875-19.773437 72.671875-19.472657zm28.5-67.597656c.886719 3.296875-1.078125 6.695312-4.375 7.582031l-110.859375 29.703125c-1.597656.429688-3.265625.207032-4.695312-.617187-1.433594-.828125-2.457032-2.160157-2.882813-3.757813-.429687-1.597656-.210937-3.265625.617187-4.695312.828126-1.433594 2.160157-2.457032 3.757813-2.886719l110.859375-29.703125c.535156-.144531 1.070312-.210938 1.601562-.210938 2.730469-.003906 5.238282 1.824219 5.976563 4.585938zm-18.679687-16.929688-82.875 22.207032-2.691407-23.1875 88.433594-23.695313zm27.347656-53.171874c.882812 3.296874-1.082032 6.699218-4.378906 7.582031l-128.1875 34.347656c-3.296876.886719-6.699219-1.078125-7.582032-4.375-.882812-3.296875 1.082032-6.695313 4.378906-7.582031l128.1875-34.347656c.535157-.144532 1.074219-.210938 1.601563-.210938 2.734375 0 5.242187 1.824219 5.980469 4.585938zm5.777344-69.328126c.882812 3.296876-1.082032 6.699219-4.378907 7.582032l-45.828125 12.28125c-4 1.070312-6.375 5.183594-5.300781 9.183594 1.070313 4 5.179687 6.375 9.183594 5.304687l24.195312-6.484375-2.867187 24.675781-98.640625 26.429688-2.691407-23.183594 48.429688-12.976563c4.003906-1.074218 6.375-5.1875 5.304688-9.1875-1.070313-4-5.183594-6.375-9.1875-5.304687l-62.339844 16.707031c-3.296875.882813-6.695313-1.082031-7.582032-4.378906-.425781-1.59375-.207031-3.261719.621094-4.695312.824219-1.429688 2.160156-2.457032 3.757813-2.882813l139.742187-37.445313c3.296875-.886718 6.699219 1.082032 7.582032 4.375zm-16.867188-17.417968-114.40625 30.65625-4.84375-41.699219h120.535156zm0 0"/><path d="m237.996094 43.816406c-37.234375 10.785156-76.601563 10.785156-113.835938 0-3.976562-1.148437-8.140625 1.140625-9.289062 5.121094-1.152344 3.976562 1.136718 8.136719 5.117187 9.289062 19.980469 5.789063 40.535157 8.683594 61.089844 8.683594s41.109375-2.894531 61.089844-8.683594c3.980469-1.152343 6.273437-5.3125 5.121093-9.289062-1.152343-3.980469-5.316406-6.269531-9.292968-5.121094zm0 0"/></svg>