<svg height="512pt" viewBox="0 -55 512 512" width="512pt" xmlns="http://www.w3.org/2000/svg"><path d="m256 0c-88.542969 0-256 12.484375-256 59.734375v68.265625c.0195312 6.070312 3.269531 11.671875 8.535156 14.695312v10.90625c0 14.136719 11.460938 25.597657 25.597656 25.597657h10.105469c3.601563 10.191406 13.21875 17.023437 24.027344 17.066406h25.601563c4.410156-.023437 8.738281-1.199219 12.550781-3.414063 4.667969 7.421876 12.816406 11.933594 21.582031 11.949219h34.132812c4.410157-.027343 8.738282-1.203125 12.554688-3.414062 4.664062 7.421875 12.8125 11.929687 21.578125 11.945312h42.667969c6.316406-.019531 12.402344-2.394531 17.066406-6.65625 4.664062 4.261719 10.75 6.636719 17.066406 6.65625h42.667969c8.765625-.015625 16.914063-4.523437 21.578125-11.945312 3.816406 2.210937 8.144531 3.386719 12.554688 3.414062h34.132812c8.765625-.015625 16.914062-4.527343 21.582031-11.949219 3.8125 2.214844 8.140625 3.390626 12.550781 3.414063h25.601563c10.808594-.042969 20.425781-6.875 24.027344-17.066406h10.105469c14.136718 0 25.597656-11.460938 25.597656-25.597657v-10.90625c5.265625-3.023437 8.515625-8.625 8.535156-14.695312v-68.265625c0-47.25-167.457031-59.734375-256-59.734375zm0 17.066406c154.597656 0 238.933594 28.160156 238.933594 42.667969v50.574219c-4.144532-3.757813-9.566406-5.796875-15.164063-5.699219-5.492187.015625-10.832031 1.8125-15.214843 5.121094-6.148438-10.847657-17.84375-17.351563-30.300782-16.84375-11.671875.023437-22.789062 4.964843-30.628906 13.609375-6.976562-11.375-19.605469-18.039063-32.9375-17.375-13.542969 0-26.410156 5.921875-35.214844 16.214844-7.535156-13.054688-21.753906-20.78125-36.804687-20.003907-17.171875.015625-33.195313 8.632813-42.667969 22.957031-9.472656-14.324218-25.496094-22.941406-42.667969-22.957031-15.070312-.78125-29.304687 6.960938-36.835937 20.039063-8.804688-10.292969-21.671875-16.21875-35.21875-16.214844-13.3125-.664062-25.925782 5.984375-32.902344 17.339844-7.839844-8.625-18.945312-13.554688-30.601562-13.578125-12.46875-.511719-24.175782 5.988281-30.328126 16.847656-4.382812-3.308594-9.71875-5.105469-15.207031-5.121094-5.59375-.109375-11.019531 1.917969-15.171875 5.664063v-50.574219c0-14.507813 84.335938-42.667969 238.933594-42.667969zm-230.398438 136.535156v-22.761718c0-1.527344.324219-9.164063 6.636719-9.164063 6.519531 1.066407 11.085938 7.019531 10.429688 13.59375v26.863281h-8.535157c-4.710937 0-8.53125-3.820312-8.53125-8.53125zm68.265626 25.597657h-25.601563c-4.710937 0-8.53125-3.820313-8.53125-8.53125v-42.667969c-.316406-4.867188 1.480469-9.632812 4.929687-13.082031 3.449219-3.449219 8.214844-5.246094 13.082032-4.933594 13.609375.015625 24.640625 11.046875 24.652344 24.65625v36.027344c0 4.710937-3.820313 8.53125-8.53125 8.53125zm68.265624 8.535156h-34.132812c-4.710938 0-8.535156-3.820313-8.535156-8.535156v-51.199219c-.28125-5.867188 1.925781-11.582031 6.078125-15.734375 4.152343-4.152344 9.867187-6.359375 15.734375-6.078125 16.226562.019531 29.375 13.171875 29.390625 29.398438v43.613281c0 4.714843-3.820313 8.535156-8.535157 8.535156zm76.800782 8.53125h-42.667969c-4.710937 0-8.53125-3.820313-8.53125-8.53125v-59.734375c-.332031-6.886719 2.257813-13.59375 7.132813-18.46875s11.578124-7.464844 18.464843-7.132812c18.851563 0 34.132813 15.285156 34.132813 34.136718v51.199219c0 4.710937-3.820313 8.53125-8.53125 8.53125zm85.332031-8.53125c0 4.710937-3.820313 8.53125-8.53125 8.53125h-42.667969c-4.710937 0-8.53125-3.820313-8.53125-8.53125v-51.199219c0-18.851562 15.28125-34.136718 34.132813-34.136718 6.886719-.332032 13.589843 2.257812 18.464843 7.132812s7.464844 11.582031 7.132813 18.46875zm68.269531-8.535156c0 4.714843-3.824218 8.535156-8.535156 8.535156h-34.132812c-4.714844 0-8.535157-3.820313-8.535157-8.535156v-43.613281c.015625-16.226563 13.164063-29.378907 29.390625-29.398438 5.867188-.28125 11.582032 1.925781 15.734375 6.078125 4.152344 4.152344 6.359375 9.867187 6.078125 15.734375zm59.730469-8.53125c0 4.710937-3.820313 8.53125-8.53125 8.53125h-25.601563c-4.710937 0-8.53125-3.820313-8.53125-8.53125v-36.027344c.011719-13.609375 11.042969-24.640625 24.652344-24.65625 4.867188-.3125 9.632813 1.484375 13.082032 4.933594 3.449218 3.449219 5.246093 8.214843 4.929687 13.082031zm34.132813-17.066407c0 4.710938-3.820313 8.53125-8.53125 8.53125h-8.535157v-26.863281c-.65625-6.574219 3.914063-12.53125 10.4375-13.59375 6.316407 0 6.628907 7.636719 6.628907 9.164063zm0 0"/><path d="m8.535156 277.1875v65.914062c0 45.847657 161.875 57.964844 247.464844 57.964844s247.464844-12.117187 247.464844-57.964844v-65.914062c-.019532-6.160156-3.425782-11.808594-8.863282-14.703125.207032-1.410156.316407-2.835937.332032-4.265625v-14.839844c-.015625-13.804687-11.207032-24.992187-25.011719-25.003906h-1.175781c-6.722656.003906-13.160156 2.722656-17.851563 7.535156-6.214843-6.171875-14.617187-9.632812-23.375-9.632812h-10.238281c-10.019531.019531-19.492188 4.5625-25.78125 12.355468-4.667969-2.476562-9.863281-3.785156-15.144531-3.820312h-18.808594c-11.664063.027344-22.449219 6.1875-28.40625 16.210938-5.898437-4.933594-13.332031-7.648438-21.019531-7.679688h-27.375c-9.476563.015625-18.488282 4.105469-24.746094 11.222656-6.257812-7.117187-15.269531-11.207031-24.746094-11.222656h-27.308594c-7.6875.03125-15.121093 2.746094-21.015624 7.679688-5.957032-10.023438-16.746094-16.183594-28.40625-16.210938h-18.84375c-5.28125.035156-10.480469 1.34375-15.144532 3.820312-6.300781-7.804687-15.785156-12.34375-25.816406-12.355468h-10.238281c-8.757813-.003906-17.160157 3.460937-23.375 9.632812-4.691407-4.8125-11.128907-7.527344-17.851563-7.535156h-1.175781c-13.804687.015625-24.992187 11.199219-25.011719 25.003906v14.8125c.015625 1.429688.125 2.855469.332032 4.269532-5.445313 2.898437-8.851563 8.558593-8.863282 14.726562zm452.265625-33.808594c.007813-4.382812 3.5625-7.929687 7.945313-7.9375h1.175781c4.382813.007813 7.933594 3.554688 7.945313 7.9375v14.8125c0 1.539063-.316407 9.175782-6.632813 9.175782-6.523437-1.0625-11.09375-7.019532-10.433594-13.59375zm-43.519531-10.035156h10.238281c8.953125 0 16.214844 7.257812 16.214844 16.214844v32.894531c.21875 4.757813-1.640625 9.375-5.097656 12.652344-3.457031 3.277343-8.167969 4.886719-12.910157 4.414062h-1.191406c-5.476562.019531-10.777344-1.929687-14.933594-5.496093v-35.96875c-.015624-6.363282-1.875-12.585938-5.351562-17.917969 2.992188-4.234375 7.84375-6.761719 13.03125-6.792969zm-75.949219 24.746094c0-8.953125 7.261719-16.210938 16.214844-16.210938h18.773437c8.953126 0 16.214844 7.257813 16.214844 16.210938v41.199218c.167969 5.738282-2.113281 11.277344-6.277344 15.230469-4.164062 3.953125-9.8125 5.945313-15.535156 5.480469h-1.304687c-15.488281-.042969-28.03125-12.582031-28.085938-28.066406v-33.878906zm-60.585937-7.679688h27.308594c8.953124 0 16.210937 7.257813 16.210937 16.214844v49.441406c0 4.421875 0 16.214844-25.597656 16.214844h-1.46875c-8.675781-.011719-16.996094-3.46875-23.121094-9.613281-6.128906-6.144531-9.5625-14.472657-9.542969-23.148438v-32.929687c.015625-8.941406 7.269532-16.179688 16.210938-16.179688zm-76.800782 0h27.308594c8.953125 0 16.210938 7.257813 16.210938 16.214844v32.894531c-.023438 18.03125-14.632813 32.640625-32.664063 32.65625h-1.46875c-25.597656 0-25.597656-11.757812-25.597656-16.210937v-49.375c.019531-8.941406 7.269531-16.179688 16.210937-16.179688zm-49.421874-8.53125c8.953124 0 16.210937 7.257813 16.210937 16.210938v33.878906c-.070313 15.5-12.652344 28.027344-28.152344 28.03125h-1.304687c-5.726563.46875-11.382813-1.53125-15.546875-5.492188-4.164063-3.960937-6.441407-9.507812-6.265625-15.253906v-41.199218c0-8.953126 7.261718-16.210938 16.214844-16.210938zm-69.976563-8.535156h10.242187c5.179688.023438 10.027344 2.539062 13.03125 6.757812-3.476562 5.332032-5.335937 11.554688-5.351562 17.921876v35.957031c-4.148438 3.585937-9.449219 5.554687-14.933594 5.546875h-1.195312c-4.75.496094-9.484375-1.105469-12.957032-4.386719-3.472656-3.28125-5.339843-7.914063-5.117187-12.6875v-32.9375c.023437-8.9375 7.277344-16.171875 16.214844-16.171875zm-50.414063 10.035156c.003907-4.382812 3.5625-7.9375 7.945313-7.9375h1.175781c4.386719 0 7.941406 3.554688 7.945313 7.9375v10.394532c.660156 6.574218-3.90625 12.527343-10.425781 13.59375-6.316407 0-6.640626-7.679688-6.640626-9.175782zm6.640626 41.054688c3.601562-.011719 7.160156-.804688 10.425781-2.320313v.339844c-.1875 9.273437 3.476562 18.214844 10.125 24.683594 6.648437 6.46875 15.679687 9.890625 24.949219 9.449219h1.191406c5.960937-.027344 11.835937-1.375 17.214844-3.941407 5.316406 15.445313 20.292968 25.441407 36.597656 24.421875h1.304687c10.863281-.042968 21.335938-4.03125 29.476563-11.222656 3.097656 10.675781 12.800781 23.417969 41.273437 23.417969h1.46875c16.515625 0 31.953125-8.203125 41.199219-21.890625 9.242188 13.695312 24.679688 21.902344 41.199219 21.90625h1.46875c28.507812 0 38.175781-12.738282 41.273437-23.414063 8.140625 7.183594 18.617188 11.164063 29.476563 11.203125h1.304687c16.300782 1.03125 31.277344-8.957031 36.597656-24.398437 5.375 2.570312 11.253907 3.917969 17.214844 3.945312h1.191406c9.269532.441407 18.300782-2.980469 24.949219-9.453125 6.648438-6.46875 10.3125-15.40625 10.125-24.679687v-.394531c3.269531 1.523437 6.828125 2.320312 10.433594 2.328124 5.59375.105469 11.019531-1.925781 15.164063-5.679687v64.367187c0 13.882813-81.320313 40.898438-230.398438 40.898438s-230.398438-27.015625-230.398438-40.898438l-.292968-64.667968c4.171875 3.949218 9.722656 6.101562 15.464844 6zm0 0"/></svg>