<svg id="Layer_1" enable-background="new 0 0 512.001 512.001" height="512" viewBox="0 0 512.001 512.001" width="512" xmlns="http://www.w3.org/2000/svg"><path d="m71.582 214.459c1.723 4.069-.18 8.764-4.248 10.486-1.019.431-2.075.635-3.115.635-3.117 0-6.079-1.832-7.371-4.883-17.454-41.229-5.244-89.591 29.691-117.609 35.627-28.572 86.125-29.521 122.8-2.305 3.548 2.633 4.29 7.644 1.656 11.191s-7.644 4.288-11.191 1.656c-30.838-22.883-73.297-22.086-103.255 1.939-29.376 23.56-39.643 64.225-24.967 98.89zm333.653 28.878c-3.775-2.295-8.697-1.09-10.989 2.687-18.866 31.073-32.324 64.842-40 100.367-1.976 9.14-4.087 20.774-6.322 33.092-4.729 26.066-10.091 55.611-17.077 79.32-10.431 35.397-18.806 36.955-19.726 37.016-1.597.132-16.121-1.258-41.584-80.046-5.766-28.668-12.079-50.826-18.766-65.866-7.867-17.694-16.663-26.296-26.889-26.296s-19.021 8.602-26.888 26.296c-6.688 15.04-13 37.197-18.765 65.865-25.515 78.945-40.016 80.291-41.605 80.224-.914-.061-9.228-1.607-19.622-36.858-6.979-23.669-12.387-53.372-17.157-79.578-2.817-15.474-5.25-28.837-7.644-39.007-9.406-39.963-26.029-77.323-49.416-111.061-21.883-48.644-8.17-105.795 33.488-139.202 41.444-33.237 100.183-34.34 142.843-2.684 2.832 2.102 6.705 2.102 9.535 0 10.37-7.695 21.84-13.581 34.092-17.492 4.209-1.344 6.532-5.845 5.188-10.054s-5.847-6.531-10.054-5.188c-12.081 3.856-23.491 9.399-33.995 16.507-48.034-32.487-112.033-30.131-157.619 6.429-47.566 38.146-63.086 103.52-37.739 158.976.199.437.438.854.712 1.247 22.448 32.232 38.394 67.959 47.392 106.188 2.3 9.771 4.699 22.948 7.477 38.206 13.609 74.756 25.267 127.806 51.466 129.536.438.029.872.044 1.308.043 18.994-.001 36.044-27.649 56.719-91.752.094-.29.171-.585.23-.884 15.803-78.845 29.915-79.757 30.056-79.757s14.253.912 30.057 79.757c.06.299.137.594.23.884 21.11 65.456 38.489 92.838 58.01 91.532 26.307-1.745 37.934-54.751 51.487-129.443 2.211-12.184 4.299-23.69 6.218-32.57 7.3-33.782 20.098-65.894 38.037-95.443 2.292-3.778 1.09-8.698-2.688-10.991zm-140.894-85.073 16.794-54.672c1.032-3.358 4.134-5.65 7.647-5.65s6.615 2.292 7.647 5.65l16.795 54.672 54.671 16.794c3.358 1.032 5.65 4.134 5.65 7.647s-2.292 6.615-5.65 7.647l-54.671 16.794-16.795 54.672c-1.032 3.357-4.134 5.65-7.647 5.65s-6.615-2.292-7.647-5.65l-16.794-54.672-54.67-16.794c-3.359-1.032-5.651-4.134-5.651-7.647s2.292-6.615 5.651-7.647zm8.752 14.049-33.829 10.392 33.829 10.392c2.534.779 4.519 2.764 5.298 5.298l10.392 33.831 10.393-33.831c.779-2.534 2.764-4.519 5.299-5.298l33.828-10.392-33.828-10.392c-2.535-.779-4.52-2.764-5.299-5.298l-10.393-33.831-10.392 33.831c-.78 2.535-2.764 4.519-5.298 5.298zm14.419-113.912c0-3.514 2.292-6.615 5.651-7.647l34.503-10.599 10.599-34.503c1.032-3.359 4.134-5.651 7.647-5.651s6.615 2.292 7.647 5.651l10.599 34.503 34.504 10.599c3.359 1.032 5.651 4.134 5.651 7.647s-2.292 6.615-5.65 7.647l-34.505 10.6-10.599 34.503c-1.032 3.359-4.134 5.651-7.647 5.651s-6.615-2.292-7.647-5.651l-10.599-34.503-34.504-10.6c-3.358-1.031-5.65-4.133-5.65-7.647zm35.243 0 13.663 4.197c2.534.779 4.519 2.764 5.298 5.299l4.196 13.661 4.196-13.661c.779-2.535 2.764-4.52 5.298-5.299l13.663-4.197-13.662-4.196c-2.535-.779-4.52-2.764-5.299-5.299l-4.196-13.661-4.196 13.661c-.779 2.535-2.764 4.52-5.299 5.299zm172.76 90.594c0 3.514-2.292 6.615-5.651 7.647l-44.878 13.785-13.786 44.88c-1.032 3.358-4.134 5.65-7.647 5.65s-6.615-2.292-7.647-5.65l-13.786-44.879-44.878-13.785c-3.359-1.032-5.651-4.134-5.651-7.647s2.292-6.615 5.65-7.647l44.879-13.786 13.786-44.879c1.032-3.358 4.134-5.65 7.647-5.65s6.615 2.292 7.647 5.65l13.786 44.879 44.879 13.786c3.358 1.031 5.65 4.132 5.65 7.646zm-35.244 0-24.037-7.384c-2.534-.779-4.519-2.764-5.298-5.298l-7.384-24.038-7.384 24.038c-.779 2.534-2.764 4.519-5.298 5.298l-24.037 7.384 24.036 7.383c2.535.779 4.52 2.764 5.299 5.298l7.384 24.038 7.384-24.038c.779-2.534 2.764-4.519 5.299-5.298z"/></svg>